<?xml version="1.0" encoding="UTF-8"?>
<svg version="1.1" xmlns="http://www.w3.org/2000/svg" width="512" height="512">
<path d="M0 0 C1.2055957 0.14453613 2.41119141 0.28907227 3.65332031 0.43798828 C30.53989771 3.69860867 57.12360078 8.97418894 83 17 C83.87269531 17.26893066 84.74539063 17.53786133 85.64453125 17.81494141 C110.90245779 25.74441719 141.99138562 38.3057559 156.28125 62.13671875 C159.09518444 67.57364208 160.12386046 71.9510101 160.13701439 78.11215973 C160.1446262 80.00448924 160.1446262 80.00448924 160.15239179 81.93504763 C160.15299345 83.3377612 160.15349254 84.74047483 160.15390015 86.14318848 C160.15791558 87.63126728 160.16235394 89.119345 160.1671797 90.6074214 C160.17914219 94.70258558 160.18479291 98.79773798 160.18936086 102.8929162 C160.19531824 107.30757577 160.20692781 111.72222126 160.21765137 116.13687134 C160.24217317 126.80201654 160.25680268 137.46716641 160.26971143 148.13233113 C160.27342368 151.14503653 160.27739689 154.15774146 160.2814641 157.1704464 C160.30670215 175.88149176 160.3287539 194.59253786 160.34119225 213.3035965 C160.34412192 217.63761905 160.34708358 221.97164157 160.35009766 226.30566406 C160.35084371 227.38285688 160.35158976 228.46004969 160.35235842 229.56988472 C160.36500854 247.01472843 160.39822705 264.45947014 160.43989949 281.90426618 C160.48233964 299.81740801 160.50588973 317.73049766 160.51111281 335.64368963 C160.51452468 345.70005482 160.52625338 355.75626063 160.55921555 365.81257629 C160.58724585 374.37826767 160.59820232 382.943767 160.58702008 391.50950068 C160.58184097 395.87764339 160.58467135 400.24538412 160.60948563 404.61346817 C160.63204674 408.6184772 160.63118568 412.62279709 160.61228175 416.62781876 C160.60949129 418.07071213 160.61502699 419.51365292 160.63009469 420.95647031 C160.76078747 434.29493312 157.65076491 444.15910006 148.3581543 453.7512207 C103.20653509 499.49742913 15.59828145 508.65886122 -45.72957039 509.17796516 C-47.80278808 509.19006906 -49.87597508 509.19707958 -51.94921875 509.203125 C-53.4443515 509.21014509 -54.93948394 509.21723193 -56.43461609 509.22438049 C-61.18558177 509.24378303 -65.9364987 509.24881413 -70.6875 509.25 C-71.49600655 509.25044186 -72.30451309 509.25088371 -73.13751984 509.25133896 C-96.88812798 509.25815058 -120.41049247 509.07233103 -144 506 C-145.40323729 505.82598932 -146.80656034 505.65266907 -148.20996094 505.47998047 C-186.49391392 500.70761689 -225.01805109 492.74369144 -260 476 C-260.70817871 475.6611377 -261.41635742 475.32227539 -262.14599609 474.97314453 C-278.90090327 466.80886277 -296.12317813 455.30656101 -303.058209 437.24382651 C-304.03782354 433.86972375 -304.25379309 431.14721988 -304.26006222 427.64174461 C-304.26712781 426.37620951 -304.2741934 425.11067441 -304.2814731 423.80678976 C-304.27922194 422.40996035 -304.27677546 421.01313125 -304.27415466 419.61630249 C-304.27860861 418.12649601 -304.28392318 416.63669189 -304.29002339 415.14689124 C-304.30419524 411.05622668 -304.30586683 406.96563814 -304.30542648 402.87495255 C-304.30707542 398.46168336 -304.32014346 394.04844542 -304.33161926 389.63519287 C-304.35446316 379.98629028 -304.36238933 370.33740969 -304.36744571 360.68848372 C-304.37070366 354.66168993 -304.37722677 348.63490252 -304.3844471 342.60811234 C-304.40401282 325.91612389 -304.420417 309.22414138 -304.42332363 292.53214073 C-304.4235112 291.46409493 -304.42369877 290.39604913 -304.42389202 289.2956383 C-304.42425827 287.13051454 -304.42462197 284.96539078 -304.42498314 282.80026703 C-304.42516595 281.72551973 -304.42534876 280.65077243 -304.42553711 279.54345703 C-304.42571766 278.46739522 -304.42589821 277.39133341 -304.42608423 276.28266366 C-304.42962504 258.85087456 -304.45664177 241.41920905 -304.494035 223.9874628 C-304.53213372 206.08329181 -304.55148123 188.17918212 -304.55178314 170.2749697 C-304.55236739 160.22534906 -304.56083802 150.17587584 -304.58978081 140.12629318 C-304.61431568 131.56796126 -304.6215634 123.00983052 -304.60653328 114.45147292 C-304.59937281 110.08737312 -304.60018435 105.7236704 -304.62294388 101.35961533 C-304.64361067 97.35837665 -304.64086249 93.3578384 -304.62006903 89.35660668 C-304.61658875 87.91512319 -304.62142181 86.47358837 -304.63577347 85.03217213 C-304.75956718 71.73352033 -301.70914033 61.90308359 -292.3671875 52.30078125 C-291.58601563 51.54152344 -290.80484375 50.78226563 -290 50 C-289.32195312 49.31292969 -288.64390625 48.62585937 -287.9453125 47.91796875 C-281.44087011 41.69579461 -273.8567386 37.27293077 -266 33 C-265.33871094 32.63793457 -264.67742187 32.27586914 -263.99609375 31.90283203 C-228.23076645 12.73668241 -185.93507921 5.07194882 -146.04504395 0.25 C-144.08713191 0.01065159 -142.13091022 -0.24240429 -140.17480469 -0.49609375 C-94.77280586 -6.17868166 -45.3583552 -5.8172432 0 0 Z " fill="#7EAAD9" transform="translate(328,3)"/>
<path d="M0 0 C1.64908544 2.47362816 2.65514453 4.47437131 3.75 7.1875 C13.30250295 28.93618753 37.94097087 40.68286923 58.85546875 49.03125 C107.16514357 67.73297104 160.38981773 75.25094687 212 76 C212.82089111 76.0133136 213.64178223 76.0266272 214.48754883 76.04034424 C289.29923352 77.23223933 393.53016301 76.09228406 451.3125 21 C457.34533911 14.76039019 460.63424772 8.30898361 463 0 C463.33 0 463.66 0 464 0 C464.11419467 29.60590119 464.20261619 59.21179192 464.25532665 88.81786729 C464.26157978 92.31738064 464.26805143 95.81689355 464.2746582 99.31640625 C464.27596976 100.01306238 464.27728131 100.70971851 464.2786326 101.42748544 C464.30035745 112.69060235 464.33976271 123.95359097 464.38576398 135.21663192 C464.43261023 146.78349153 464.45993862 158.35027654 464.47044247 169.91722655 C464.47695197 176.41007673 464.4922155 182.90263643 464.52865028 189.39539337 C464.56269458 195.51196001 464.5730357 201.62811766 464.56553841 207.74477005 C464.56690916 209.98443197 464.57679079 212.22410817 464.59602737 214.4636879 C464.72568544 230.34345241 463.86259699 241.87597845 452.3581543 253.7512207 C407.20653509 299.49742913 319.59828145 308.65886122 258.27042961 309.17796516 C256.19721192 309.19006906 254.12402492 309.19707958 252.05078125 309.203125 C250.5556485 309.21014509 249.06051606 309.21723193 247.56538391 309.22438049 C242.81441823 309.24378303 238.0635013 309.24881413 233.3125 309.25 C232.50399345 309.25044186 231.69548691 309.25088371 230.86248016 309.25133896 C207.11187202 309.25815058 183.58950753 309.07233103 160 306 C158.59676271 305.82598932 157.19343966 305.65266907 155.79003906 305.47998047 C117.50608608 300.70761689 78.98194891 292.74369144 44 276 C43.29182129 275.6611377 42.58364258 275.32227539 41.85400391 274.97314453 C24.95015033 266.73628461 8.3729322 255.35887823 0.94056892 237.44675255 C-0.26798432 233.01796072 -0.27031326 228.9635452 -0.24050903 224.39492798 C-0.24221788 223.43425018 -0.24392673 222.47357238 -0.24568737 221.48378313 C-0.24897848 218.26857222 -0.23798467 215.05357055 -0.22705078 211.83837891 C-0.22648659 209.53210454 -0.22680339 207.22582982 -0.22793579 204.91955566 C-0.22850998 198.65974858 -0.21674488 192.40001803 -0.20278788 186.14022875 C-0.1902916 179.59791482 -0.18911089 173.05559917 -0.18673706 166.51327515 C-0.18155881 155.53276237 -0.16873033 144.55227643 -0.15087891 133.57177734 C-0.13251324 122.26318502 -0.11836009 110.95460033 -0.10986328 99.64599609 C-0.10933783 98.94861547 -0.10881239 98.25123485 -0.10827102 97.53272147 C-0.10566089 94.03407266 -0.10313349 90.53542378 -0.10064721 87.03677487 C-0.07992298 58.02449832 -0.04455571 29.01224954 0 0 Z " fill="#424A60" transform="translate(24,203)"/>
<path d="M0 0 C0.33 0 0.66 0 1 0 C1.00257812 0.94359375 1.00515625 1.8871875 1.0078125 2.859375 C1.43958757 17.19430727 6.46346354 27.07260706 17 37 C77.11089434 91.2346691 191.32277413 91.12321183 267.79238892 87.42822266 C327.12291064 84.31812522 408.37373762 76.99461379 452 32 C460.747293 22.17349552 462.66021649 12.89478427 463 0 C463.33 0 463.66 0 464 0 C464.09365897 16.49911128 464.16408437 32.99813563 464.20724869 49.49744892 C464.22782803 57.15927864 464.25585938 64.82094268 464.30175781 72.48266602 C464.34176813 79.16471464 464.36746641 85.8466432 464.37635398 92.5288083 C464.3815449 96.06332059 464.39364707 99.59748957 464.42292023 103.13189125 C464.45542017 107.08839727 464.45595035 111.04457488 464.45410156 115.0012207 C464.46848267 116.1585672 464.48286377 117.3159137 464.49768066 118.5083313 C464.43768934 130.42369599 460.93811322 139.1763602 453 148 C452.02933594 149.10988281 452.02933594 149.10988281 451.0390625 150.2421875 C444.88588825 156.85284682 437.71776534 161.46509369 430 166 C428.88109375 166.66902344 427.7621875 167.33804688 426.609375 168.02734375 C394.19795711 186.708701 353.88810157 194.71934218 317.23144531 199.57080078 C314.16998601 199.97742253 311.11245183 200.40644777 308.0546875 200.83984375 C276.09440155 205.25224117 244.1948652 205.3798188 212 205 C211.26742981 204.9926886 210.53485962 204.9853772 209.78009033 204.97784424 C177.49805052 204.65331837 145.58665153 200.48267116 114 194 C112.8234082 193.76023437 111.64681641 193.52046875 110.43457031 193.2734375 C77.75157581 186.49281054 41.22056852 176.00247291 16 153 C15.24976563 152.319375 14.49953125 151.63875 13.7265625 150.9375 C5.2931216 142.91162316 -0.00546068 133.8875169 -0.36076355 122.05833435 C-0.3693822 119.7816531 -0.36166182 117.50487141 -0.34057617 115.22827148 C-0.34101425 113.97850021 -0.34145233 112.72872894 -0.34190369 111.44108582 C-0.34018128 108.04068203 -0.3252166 104.64083593 -0.30418181 101.24053073 C-0.28532939 97.67714021 -0.28365787 94.11374093 -0.28010559 90.55030823 C-0.27081012 83.81442027 -0.24623053 77.07867974 -0.21605712 70.34285647 C-0.18243491 62.66929588 -0.16600752 54.99572797 -0.15097082 47.32211196 C-0.11967847 31.5479895 -0.06696708 15.77401382 0 0 Z " fill="#7282BE" transform="translate(24,75)"/>
<path d="M0 0 C1.64908544 2.47362816 2.65514453 4.47437131 3.75 7.1875 C13.30250295 28.93618753 37.94097087 40.68286923 58.85546875 49.03125 C107.16514357 67.73297104 160.38981773 75.25094687 212 76 C212.82089111 76.0133136 213.64178223 76.0266272 214.48754883 76.04034424 C289.29923352 77.23223933 393.53016301 76.09228406 451.3125 21 C457.34533911 14.76039019 460.63424772 8.30898361 463 0 C463.33 0 463.66 0 464 0 C464.0936985 14.93447424 464.16410364 29.86892559 464.20724869 44.80363178 C464.22781973 51.73906123 464.25583483 58.67430739 464.30175781 65.60961914 C464.34608736 72.30751745 464.36916442 79.00518638 464.37950897 85.70323753 C464.38687729 88.25360287 464.40126574 90.80395828 464.42292023 93.35424232 C464.45212333 96.93731467 464.4559488 100.51961025 464.45410156 104.1027832 C464.46848267 105.14792084 464.48286377 106.19305847 464.49768066 107.26986694 C464.43364691 118.81230375 460.66307351 127.48037536 453 136 C452.36449219 136.72832031 451.72898437 137.45664062 451.07421875 138.20703125 C408.79331708 183.67293493 320.34339968 190.49650786 262.27099609 192.81030273 C251.6597733 193.17200323 241.04290431 193.14825266 230.42675781 193.13037109 C226.58134139 193.12493832 222.73603823 193.13039085 218.890625 193.13671875 C216.41927058 193.13605903 213.94791623 193.13478009 211.4765625 193.1328125 C210.34006256 193.13483673 209.20356262 193.13686096 208.03262329 193.13894653 C202.25110505 193.12190764 196.72032433 192.82764021 191 192 C189.64594825 191.91472043 188.29009105 191.84959261 186.93359375 191.82421875 C129.3084834 190.14424311 53.17516293 178.17516293 11.0078125 136.0078125 C4.4890786 129.04144022 -0.13072436 120.789308 -0.12025452 111.11517334 C-0.12162918 110.13363281 -0.12300385 109.15209229 -0.12442017 108.14080811 C-0.12082489 107.07050354 -0.11722961 106.00019897 -0.11352539 104.89746094 C-0.11367142 103.76546265 -0.11381744 102.63346436 -0.1139679 101.46716309 C-0.11327084 97.72288095 -0.10548804 93.97864846 -0.09765625 90.234375 C-0.09579134 87.63934354 -0.09436778 85.04431172 -0.09336853 82.44927979 C-0.08993958 76.31535805 -0.08205683 70.18145682 -0.07201904 64.04754281 C-0.06083806 57.06330488 -0.05534245 50.0790661 -0.05032361 43.09482145 C-0.03987369 28.72987139 -0.02228661 14.36493633 0 0 Z " fill="#556080" transform="translate(24,203)"/>
</svg>
